<?xml version="1.0" encoding="utf-8"?><!-- Uploaded to: SVG Repo, www.svgrepo.com, Generator: SVG Repo Mixer Tools -->
<svg fill="#000000" width="800px" height="800px" viewBox="0 0 24 24" id="screen-lock" data-name="Flat Line" xmlns="http://www.w3.org/2000/svg" class="icon flat-line"><rect id="secondary" x="5" y="14" width="6" height="8" rx="1" transform="translate(26 10) rotate(90)" style="fill: rgb(44, 169, 188); stroke-width: 2;"></rect><path id="primary" d="M8,7V4A1,1,0,0,1,9,3H19a1,1,0,0,1,1,1V20a1,1,0,0,1-1,1H16" style="fill: none; stroke: rgb(0, 0, 0); stroke-linecap: round; stroke-linejoin: round; stroke-width: 2;"></path><path id="primary-2" data-name="primary" d="M12,20V16a1,1,0,0,0-1-1H5a1,1,0,0,0-1,1v4a1,1,0,0,0,1,1h6A1,1,0,0,0,12,20ZM8,11H8a2,2,0,0,0-2,2v2h4V13A2,2,0,0,0,8,11Zm7.5-6h-3L12,3h4Z" style="fill: none; stroke: rgb(0, 0, 0); stroke-linecap: round; stroke-linejoin: round; stroke-width: 2;"></path></svg>